HIERARCHY
ROOT Hips
{
  OFFSET 0 0 0
  CHANNELS 6 Xposition Yposition Zposition Zrotation Yrotation Xrotation
  JOINT LeftThigh
  {
    OFFSET 8.409438 0 -5.917753
    CHANNELS 3 Zrotation Yrotation Xrotation
    JOINT LeftLeg
    {
      OFFSET 0 0 -42.358652
      CHANNELS 3 Zrotation Yrotation Xrotation
      JOINT LeftFoot
      {
        OFFSET 0 0 -39.357303
        CHANNELS 3 Zrotation Yrotation Xrotation
      }
    }
  }
  JOINT RightThigh
  {
    OFFSET -8.409438 0 -5.917753
    CHANNELS 3 Zrotation Yrotation Xrotation
    JOINT RightLeg
    {
      OFFSET 0 0 -42.358652
      CHANNELS 3 Zrotation Yrotation Xrotation
      JOINT RightFoot
      {
        OFFSET 0 0 -39.357303
        CHANNELS 3 Zrotation Yrotation Xrotation
      }
    }
  }
  JOINT SpineLow
  {
    OFFSET 0 0 4.719101
    CHANNELS 3 Zrotation Yrotation Xrotation
    JOINT SpineMid
    {
      OFFSET 0 0 12.899191
      CHANNELS 3 Zrotation Yrotation Xrotation
      JOINT Chest
      {
        OFFSET 0 0 12.899191
        CHANNELS 3 Zrotation Yrotation Xrotation
        JOINT LeftShoulder
        {
          OFFSET 7.550562 1.41573 9.438202
          CHANNELS 3 Zrotation Yrotation Xrotation
          JOINT LeftArm
          {
            OFFSET 9.155056 0 4.247191
            CHANNELS 3 Zrotation Yrotation Xrotation
            JOINT LeftForearm
            {
              OFFSET 0 0 25.771955
              CHANNELS 3 Zrotation Yrotation Xrotation
              JOINT LeftHand
              {
                OFFSET 0 0 25.197169
                CHANNELS 3 Zrotation Yrotation Xrotation
              }
            }
          }
        }
        JOINT RightShoulder
        {
          OFFSET -7.550562 1.41573 9.438202
          CHANNELS 3 Zrotation Yrotation Xrotation
          JOINT RightArm
          {
            OFFSET -9.155056 0 4.247191
            CHANNELS 3 Zrotation Yrotation Xrotation
            JOINT RightForearm
            {
              OFFSET 0 0 -25.771955
              CHANNELS 3 Zrotation Yrotation Xrotation
              JOINT RightHand
              {
                OFFSET 0 0 -25.197169
                CHANNELS 3 Zrotation Yrotation Xrotation
              }
            }
          }
        }
        JOINT Neck
        {
          OFFSET 0 0 15.101124
          CHANNELS 3 Zrotation Yrotation Xrotation
          JOINT Head
          {
            OFFSET 0 0 11.325843
            CHANNELS 3 Zrotation Yrotation Xrotation
            End Site
            {
              OFFSET 0 0 14.157303
            }
          }
        }
      }
    }
  }
}
MOTION
Frames: 5
Frame Time: 0.0
0.0  93.25843  0.0  -3.213033  -37.392141  -90.786191  28.892966  -20.194085  -40.000296  1.788539  2.841281  43.695179  4.699054  1.315188  1.618652  -25.639811  27.229982  -5.867112  -11.919069  6.572327  12.690628  2.369896  0.866912  0.683722  4.439104  0.56033  0.90473  12.154464  1.359754  2.566378  12.154464  1.359753  2.566377  -28.184262  7.222423  -0.583094  -136.972519  71.026385  -77.091503  -45.682579  5.445459  74.049708  75.389469  -7.61131  -6.38459  -4.067061  -16.916808  16.181245  117.69031  27.420949  44.829397  -12.545137  -13.329208  -122.143294  65.023816  -1.634253  -17.064002  7.199643  -3.344979  -1.3126  5.391037  -2.524621  -0.944877  
0.0  93.25843  0.0  -3.958315  -37.366793  -89.83158  28.475197  -21.425023  -41.545704  2.565013  2.446931  44.989419  4.092165  1.516564  1.091961  -29.29133  25.077336  -7.443249  -10.216777  7.759686  13.502489  6.529728  2.734129  0.245954  4.244677  0.481377  0.830969  11.618494  1.165431  2.347873  11.618493  1.165431  2.347873  -28.059709  8.297886  -0.38086  -131.216265  71.479761  -71.932481  -45.680987  5.334343  74.066424  75.371849  -7.558473  -6.295499  -3.567268  -16.870401  16.488946  117.516444  27.390612  45.06144  -12.543261  -13.251764  -122.150671  64.795786  -1.635595  -16.950265  7.936548  -3.253477  -1.390217  5.943441  -2.458663  -1.000287  
0.0  93.25843  0.0  -4.399466  -37.18617  -89.313352  28.0967  -22.347599  -42.617125  2.610248  2.772938  45.421738  4.131293  1.537523  1.068318  -30.25609  23.406378  -9.369893  -5.6058  9.187371  16.971244  4.818202  0.690908  0.055225  4.024437  0.394876  0.803945  11.012826  0.942267  2.256243  11.012826  0.942267  2.256243  -28.074473  9.687757  -0.393004  -125.892707  71.735697  -67.354512  -45.72118  5.386865  73.94463  75.316438  -7.574165  -6.108463  -3.078243  -16.802942  16.883255  117.257445  27.324043  45.31894  -12.557103  -13.011451  -122.050871  64.816199  -1.637068  -16.760415  8.680342  -2.975016  -1.389684  6.502065  -2.251547  -0.999974  
0.0  93.25843  0.0  -4.636496  -37.299479  -89.400749  28.063266  -23.071887  -43.049381  2.432728  3.168071  45.629359  4.187621  1.436834  1.079376  -27.459252  22.584336  -9.637292  -5.499854  9.771155  20.087802  4.154545  0.066299  -0.451453  3.912486  0.288833  0.877811  10.703573  0.645268  2.438909  10.703573  0.645268  2.438909  -28.133209  10.697169  -0.243061  -123.016627  71.157851  -64.970126  -45.755749  5.543246  73.787916  75.12665  -7.700691  -5.822503  -3.023155  -16.413356  17.394228  116.978441  27.537567  45.476366  -12.556133  -12.717834  -121.894971  64.80659  -1.713055  -16.473024  9.140861  -2.581839  -1.385571  6.848671  -1.957631  -1.000623  
0.0  93.25843  0.0  -4.850864  -37.286159  -89.747687  28.113609  -23.570335  -43.14541  2.041017  3.45147  45.660196  4.468777  1.282772  1.175216  -24.676218  22.308372  -9.308785  -3.735572  7.966368  22.927172  2.089716  1.80948  -0.523001  3.789568  0.097103  0.965066  10.360392  0.113687  2.645665  10.360392  0.113687  2.645665  -27.816982  11.764099  0.563882  -122.510917  69.557166  -64.643546  -45.657392  5.868718  73.628576  74.858674  -8.040064  -5.541678  -3.028751  -15.292755  18.236073  116.539267  28.004342  45.423481  -12.47225  -12.524464  -121.802184  64.676402  -1.906707  -16.112683  9.546335  -2.030086  -1.141566  7.155239  -1.540848  -0.824597  
